<svg viewBox="0 0 192 40" fill="none" xmlns="http://www.w3.org/2000/svg" class="Header_logo__FLQUX Header_logo_main__j3Whs" data-hideable="true"><path d="M45.452 0h3.788v7.575l1.894-1.894h9.469V0h3.788v15.15h-3.788V9.47H49.24v5.68h-3.788V0ZM113.63 0h3.788v7.575l1.894-1.894h9.469V0h3.787v15.15h-3.787V9.47h-11.363v5.68h-3.788V0ZM87.116 15.15H83.33V9.47l-5.682 5.68h-5.681l7.575-7.575h3.788V3.788h3.787V15.15Z" fill="currentColor"></path><path d="M83.329 3.788H71.966V15.15h-3.788V3.788L71.966 0h15.15L83.33 3.788ZM106.055 15.15h3.787V0h-3.787v5.681H94.692V0h-3.788v5.681l3.788 3.788h9.469l1.894-1.894v7.576ZM136.356 0h3.788v11.363l7.575-7.575h3.788V0h3.787v15.15h-3.787V5.682l-9.469 9.47h-5.682V0ZM49.24 20.832h-3.788v15.15h5.682l9.469-9.468v9.469h3.788v-15.15h-3.788v3.787h-3.788l-7.575 7.575V20.832ZM68.178 24.62h3.788v11.363h-3.788V24.62ZM71.966 24.62l-3.788-3.788h15.15l3.788 3.788v3.787H83.33V24.62H71.966ZM90.904 24.62h3.788v7.575h11.363V24.62H94.692l-3.788-3.788h15.151l3.787 3.788v7.575l-3.787 3.788h-9.47l-1.893-1.894v5.681h-3.788V24.62ZM113.63 20.832h3.788v5.682h11.363v-5.682h3.787v11.363l-3.787 3.788v-7.575l-1.894 1.893h-9.469l-3.788-3.787v-5.682ZM128.781 35.983h-13.257l-1.894 1.894v1.893h11.363l3.788-3.787Z" fill="currentColor"></path><path d="M37.877 24.62V11.363H30.3l-5.681 5.681v3.788l3.787 3.788h9.47ZM0 11.363V24.62h7.575l5.682-5.682v-3.787l-3.788-3.788H0ZM11.363 35.983v-7.575l7.575-7.576h1.894v3.788l3.788 3.787v7.576H11.363ZM26.514 0v7.575l-7.576 7.576h-1.893v-3.788l-3.788-3.788V0h13.257Z" fill="#10E211"></path><path d="M165.177 0h3.462c.65 0 1.157.183 1.523.549.374.366.561.855.561 1.468 0 .291-.042.541-.124.75-.082.202-.186.37-.313.504a1.322 1.322 0 0 1-.437.292c-.165.06-.325.097-.482.112v.067c.157.007.329.045.515.112.194.067.374.176.538.325.164.142.303.329.415.56.112.224.168.5.168.83 0 .313-.053.608-.157.884a2.114 2.114 0 0 1-.415.717 2.03 2.03 0 0 1-.638.482 1.93 1.93 0 0 1-.807.168h-3.809V0Zm1.266 6.733h2.173c.329 0 .587-.085.773-.257.187-.172.28-.419.28-.74v-.38c0-.322-.093-.568-.28-.74-.186-.172-.444-.258-.773-.258h-2.173v2.375Zm0-3.428h1.96c.314 0 .557-.078.729-.235.171-.165.257-.396.257-.695v-.358c0-.3-.086-.527-.257-.684-.172-.164-.415-.246-.729-.246h-1.96v2.218ZM172.73 7.82V0h5.008v1.12h-3.742v2.174h3.395v1.12h-3.395V6.7h3.742v1.12h-5.008ZM182.441 1.12v6.7h-1.266v-6.7h-2.33V0h5.926v1.12h-2.33ZM190.325 7.82l-.706-2.117h-2.924l-.683 2.117h-1.289L187.39 0h1.591l2.666 7.82h-1.322Zm-2.14-6.655h-.056l-1.131 3.45h2.308l-1.121-3.45Z" fill="#6720FF"></path></svg>